<?xml version="1.0" ?><svg data-name="Your Icons" id="Your_Icons" viewBox="0 0 96 96" xmlns="http://www.w3.org/2000/svg"><defs><style>.cls-1{fill:#336dff;}</style></defs><path class="cls-1" d="M84,89.36a5.92,5.92,0,0,1-4.2-1.77L49.41,57.24a2,2,0,0,0-2.83,0L16.24,87.59A6,6,0,0,1,6,83.34V12a6,6,0,0,1,6-6H84a6,6,0,0,1,6,6V83.34a5.92,5.92,0,0,1-3.7,5.55A6.26,6.26,0,0,1,84,89.36ZM48,52.66a6,6,0,0,1,4.24,1.75L82.59,84.76A2,2,0,0,0,86,83.34V12a2,2,0,0,0-2-2H12a2,2,0,0,0-2,2V83.34a2,2,0,0,0,3.41,1.42L43.76,54.41A6,6,0,0,1,48,52.66Z"/></svg>