<svg xmlns="http://www.w3.org/2000/svg" version="1.1" xmlns:xlink="http://www.w3.org/1999/xlink" xmlns:svgjs="http://svgjs.dev/svgjs" width="2000" height="2250" viewBox="0 0 2000 2250"><g transform="matrix(1,0,0,1,0.00034163026134592656,0)"><svg viewBox="0 0 320 360" data-background-color="#293040" preserveAspectRatio="xMidYMid meet" height="2250" width="2000" xmlns="http://www.w3.org/2000/svg" xmlns:xlink="http://www.w3.org/1999/xlink"><g id="tight-bounds" transform="matrix(1,0,0,1,0.00005466084189720277,0)"><svg viewBox="0 0 320 360" height="360" width="320"><g><svg></svg></g><g><svg viewBox="0 0 320 360" height="360" width="320"><g><path transform="translate(-119.39272,-98.31927) scale(5.58313,5.58313)" d="M36.7 23.5c0-0.2 0.1-0.4 0.3-0.4 0.2 0 0.4 0.1 0.4 0.4 0.1 0 0.3 0 0.4-0.1 0.4 0 0.8-0.1 1.1 0 0.3 0.1 0.5 0.1 0.8 0.2 0.3 0.1 0.5 0 0.7-0.1 0.4-0.1 0.7-0.3 1.1-0.4 0.2-0.1 0.3-0.1 0.5-0.1 0.2-0.1 0.4-0.1 0.7-0.2 0.5-0.1 1-0.2 1.4-0.4 0.4-0.2 0.8-0.2 1.2-0.3 0.2 0 0.3-0.1 0.5-0.2 0.1 0 0.1-0.1 0.2-0.2 0.2-0.1 0.3-0.2 0.5-0.1 0.1 0.1 0.3 0.1 0.4 0h0.1c0.6 0 1.2-0.1 1.9 0 0.1 0 0.2 0 0.2 0 0.3-0.2 0.7-0.2 1.1-0.2 0.1 0 0.3 0 0.4 0h0.1c0.4 0 0.8 0 1.1 0.1 0.3 0 0.5 0.1 0.8 0.2 0.3 0 0.5 0 0.8 0.1 0.2 0 0.4 0 0.6 0 0.1 0 0.2 0 0.2 0 0.4 0.1 0.8 0.1 1.2 0.1 0.3 0.1 0.6 0.2 1 0.2 0.1 0 0.2 0 0.3 0 0.1 0 0.2 0.1 0.3 0.1l0.1 0.1c0.4 0 0.7 0.2 1.1 0.2 0.1 0 0.3 0 0.4 0.1 0.3 0.2 0.7 0.3 1.1 0.3 0.2 0 0.3 0.1 0.4 0.2 0.3 0.1 0.5 0.2 0.8 0.3 0.2 0.1 0.4 0 0.6 0.1 0.3 0.1 0.7 0.2 1 0.5 0.2 0.2 0.4 0.2 0.7 0.4 0.1 0 0.2 0.1 0.3 0.2 0.3 0.2 0.6 0.4 0.9 0.5 0.1 0 0.2 0.1 0.3 0.1 0.3 0.2 0.6 0.5 1 0.7 0.2 0.1 0.3 0.2 0.5 0.3h0.1c0.3 0.3 0.7 0.5 1 0.8 0.3 0.3 0.5 0.5 0.9 0.7 0 0 0 0 0 0.1 0.1 0.2 0.2 0.3 0.4 0.4 0.2 0.1 0.3 0.2 0.4 0.3 0.3 0.2 0.6 0.4 0.8 0.6 0.1 0.1 0.2 0.2 0.4 0.4 0.1 0.1 0.2 0.2 0.3 0.2 0.4 0.1 0.6 0.4 0.9 0.7 0.2 0.2 0.5 0.5 0.7 0.7 0.1 0.1 0.2 0.3 0.3 0.5 0.2 0.6 0.5 1.2 0.8 1.7 0 0 0 0.1 0.1 0.2v0.1c0.2 0.2 0.3 0.5 0.5 0.7 0.1 0.1 0.1 0.2 0.2 0.3 0.2 0.3 0.3 0.7 0.5 1 0.3 0.5 0.5 1 0.7 1.5v0.1c0.1 0.2 0.2 0.4 0.3 0.7 0 0.2 0.2 0.4 0.3 0.7 0.1 0.5 0.4 1 0.5 1.6 0 0.1 0.1 0.2 0.1 0.4 0.1 0.3 0.2 0.6 0.3 0.9 0 0.1 0.1 0.2 0.2 0.3 0.2 0.2 0.2 0.4 0.2 0.6-0.1 0.4 0 0.8 0.1 1.2 0 0.1 0 0.2 0 0.4 0.1 0.4 0.2 0.9 0.2 1.3 0 0.1 0 0.3 0 0.4 0 0.3 0.1 0.6 0.3 0.9 0 0.1 0.1 0.1 0.1 0.1 0.1 0.1 0.2 0.3 0.3 0.4 0.1 0.1 0.1 0.1 0.2 0.2 0.2 0.2 0.3 0.4 0.3 0.7 0 0.1-0.1 0.3-0.1 0.4 0 0.1 0 0.3 0.1 0.4 0.1 0.1 0.1 0.2 0.1 0.3 0 0.1-0.1 0.2-0.2 0.2v0c-0.1 0.3-0.5 0.4-0.6 0.7-0.1 0.4-0.2 0.8-0.3 1.2-0.1 0.3-0.1 0.5-0.1 0.8 0 0.3-0.1 0.5-0.1 0.8-0.1 0.4-0.2 0.8-0.3 1.2 0 0.2-0.1 0.4-0.1 0.6 0.1 0.1 0.2 0.2 0.3 0.2 0.2 0.2 0.4 0.4 0.6 0.6 0.1 0.1 0.1 0.2 0 0.2-0.1 0.1-0.2 0.1-0.3 0.1-0.1-0.1-0.3-0.2-0.4-0.2-0.1-0.1-0.3-0.2-0.5-0.1 0 0.2-0.1 0.4-0.1 0.5-0.1 0.2-0.2 0.5-0.2 0.7-0.1 0.4-0.3 0.7-0.4 1.1-0.2 0.5-0.4 0.9-0.6 1.3-0.1 0.2-0.2 0.4-0.3 0.6v0c0 0.3-0.3 0.6-0.4 0.9-0.2 0.4-0.4 0.8-0.6 1.3-0.1 0.2-0.2 0.4-0.3 0.5-0.2 0.5-0.4 0.9-0.7 1.3-0.2 0.3-0.4 0.5-0.6 0.6-0.2 0.2-0.4 0.4-0.6 0.6-0.1 0.1-0.2 0.2-0.3 0.3-0.1 0.1-0.1 0.1-0.2 0.2-0.2 0.3-0.5 0.5-0.7 0.8-0.2 0.2-0.3 0.4-0.6 0.6-0.2 0.2-0.4 0.5-0.7 0.6-0.1 0.1-0.2 0.3-0.3 0.4-0.1 0.1-0.2 0.3-0.3 0.4 0 0.2 0.1 0.4 0.1 0.5 0 0.3-0.3 0.4-0.5 0.2-0.3-0.2-0.3-0.2-0.6 0-0.3 0.2-0.6 0.5-1 0.6-0.1 0-0.1 0.1-0.2 0.1-0.2 0.1-0.3 0.3-0.5 0.4-0.2 0.2-0.5 0.3-0.7 0.5-0.1 0.1-0.2 0.1-0.3 0.2-0.3 0.2-0.6 0.3-0.9 0.6-0.1 0.1-0.2 0.1-0.3 0.2 0 0.1 0 0.1 0 0.2 0 0.2-0.2 0.4-0.5 0.3-0.3-0.1-0.5 0-0.8 0-0.3 0.1-0.6 0.3-0.9 0.4-0.1 0-0.2 0.1-0.3 0.2-0.3 0.2-0.6 0.3-0.9 0.4-0.2 0-0.4 0.2-0.6 0.2-0.1 0-0.2 0.1-0.3 0.1h-0.1c-0.4 0.3-0.8 0.5-1.2 0.8-0.1 0-0.1 0.1-0.2 0.2-0.1 0.2-0.2 0.3-0.4 0.3-0.5 0-0.7 0.4-0.6 0.8 0 0.1 0.1 0.2 0.1 0.3 0.1 0.2 0 0.4-0.1 0.5-0.1 0.1-0.4 0.1-0.5-0.1-0.2-0.2-0.3-0.4-0.4-0.7-0.1-0.2-0.3-0.4-0.5-0.5-0.2-0.1-0.4-0.1-0.6 0-0.1 0-0.1 0.1-0.2 0.1-0.2 0.2-0.5 0.3-0.8 0.2-0.1 0-0.3 0-0.3 0.1-0.1 0.1-0.1 0.3 0 0.4 0.2 0.2 0.1 0.4 0.1 0.7 0 0.4-0.3 0.6-0.7 0.4-0.1-0.1-0.2-0.1-0.3-0.2-0.1 0-0.1-0.1-0.1-0.2-0.1-0.1-0.1-0.3-0.2-0.5-0.2 0.1-0.4 0.1-0.6 0.2-0.1 0-0.2 0.1-0.3 0.1-0.3 0-0.4 0-0.5-0.3-0.1-0.3-0.3-0.3-0.5-0.4-0.4-0.1-0.9-0.1-1.3-0.3h-0.1c-0.4-0.3-0.8-0.3-1.3-0.3-0.3 0-0.6 0.1-0.9 0.1-0.3 0-0.5 0.1-0.7 0.3-0.1 0.1-0.2 0.2-0.3 0.2-0.1-0.1-0.1-0.2-0.2-0.3v-0.1c0-0.1-0.1-0.2-0.2-0.1-0.2 0.1-0.4-0.1-0.6-0.2-0.1-0.1-0.3-0.3-0.3-0.5-0.1-0.1-0.2-0.2-0.3-0.2-0.2 0-0.5-0.1-0.7-0.1-0.1 0-0.2 0-0.2-0.1-0.1-0.1-0.2-0.1-0.4-0.1-0.1 0-0.1-0.1-0.2-0.1 0.2 0.2 0.3 0.4 0.4 0.6 0 0.1 0.1 0.1 0.1 0.2 0.1 0.2 0 0.3-0.3 0.3-0.2 0-0.2 0-0.3 0.1 0 0.2 0 0.3 0 0.5 0 0.1 0 0.2-0.2 0.3 0 0-0.1 0-0.1 0.1-0.1 0.1-0.1 0.2 0 0.3 0.3 0.2 0.5 0.3 0.8 0.4 0.3 0 0.3 0.2 0.4 0.4 0.1 0.2 0 0.3-0.1 0.5-0.2 0.2-0.4 0.4-0.6 0.6-0.3 0.1-0.5 0.4-0.8 0.4-0.2 0-0.4-0.1-0.5-0.3-0.1-0.5-0.1-0.9 0.1-1.4 0-0.1 0.1-0.2 0-0.3-0.9 0-0.9-0.2-0.9-0.3 0-0.2 0.1-0.3 0.1-0.5 0.1-0.2 0-0.3-0.3-0.4-0.1 0-0.2 0-0.3 0-0.1 0-0.1-0.1-0.3-0.1 0.2-0.1 0.3-0.1 0.5-0.2-0.1-0.4-0.2-0.7-0.5-0.9-0.1-0.1-0.2-0.2-0.2-0.4 0-0.3-0.2-0.5-0.3-0.7-0.2-0.3-0.6-0.4-0.9-0.4-0.3-0.1-0.5-0.1-0.8-0.2-0.3-0.1-0.6-0.4-0.9-0.5-0.1-0.1-0.2-0.2-0.4-0.3-0.4-0.2-0.7-0.5-1-0.8-0.2-0.1-0.3-0.3-0.5-0.4-0.2-0.2-0.3-0.4-0.5-0.5-0.2-0.2-0.4-0.4-0.7-0.6-0.3-0.2-0.5-0.5-0.8-0.8-0.2-0.3-0.5-0.5-0.8-0.7-0.1 0-0.2 0-0.3 0-0.1 0-0.2 0.1-0.3 0.1-0.3 0.1-0.5 0.3-0.8 0.4 0.1-0.1 0.1-0.1 0-0.3-0.1-0.1-0.2-0.2-0.3-0.2-0.2 0-0.4 0-0.6 0-0.4 0-0.8 0.1-1.2 0.1-0.3 0-0.7 0.1-1 0.2 0.1 0.2 0.1 0.3 0.2 0.5-0.2 0.1-0.4 0.1-0.6 0.1-0.1 0-0.3 0.1-0.4 0.2-0.1 0-0.1 0.1-0.2 0-0.2-0.1-0.4 0-0.6 0.1h-0.1c0 0 0-0.1 0.1-0.1 0.1-0.1 0.2-0.2 0.3-0.3 0.1-0.1 0.2-0.1 0.4-0.2-0.1-0.1-0.1-0.2-0.1-0.2-0.1-0.1-0.2-0.1-0.3 0-0.1 0.1-0.2 0.2-0.3 0.3-0.1 0.1-0.2 0.1-0.3 0-0.1-0.1-0.1-0.2 0-0.3 0-0.1 0.1-0.2 0.2-0.3 0.1-0.1 0.1-0.2 0.2-0.3-0.2-0.2-0.3-0.4-0.5-0.5-0.3-0.2-0.6-0.5-0.8-0.8-0.2-0.4-0.5-0.7-0.9-0.9-0.1-0.1-0.2-0.2-0.3-0.3-0.1-0.1-0.1-0.1-0.2-0.2-0.3 0.1-0.5 0.3-0.8 0.4-0.1 0-0.1 0.1-0.2 0.2-0.1 0.2-0.3 0.2-0.5 0.2-0.1 0-0.2-0.1-0.1-0.2 0.1-0.2 0.2-0.4 0.5-0.3 0 0 0.1 0 0.1-0.1 0.2-0.2 0.4-0.5 0.7-0.7-0.1-0.3-0.3-0.5-0.4-0.7-0.1-0.1-0.1-0.2-0.1-0.4 0-0.1 0-0.1-0.1-0.2 0 0-0.1 0-0.2 0.1-0.1 0.1-0.3 0.2-0.5 0 0-0.1 0-0.2 0.1-0.3l0.1-0.1c0.3-0.1 0.3-0.4 0.3-0.7v-0.1c-0.1-0.2-0.1-0.3 0.1-0.5 0.3-0.2 0.6-0.6 0.7-0.9 0.1-0.2 0.3-0.3 0.5-0.5 0.2-0.2 0.4-0.4 0.5-0.7h0.1c0.4 0.1 0.5-0.2 0.7-0.5 0-0.1 0-0.2 0.1-0.2 0.2-0.2 0.2-0.4 0.1-0.7 0-0.1-0.1-0.3-0.1-0.4 0-0.1 0-0.1-0.1-0.2-0.3-0.2-0.3-0.4 0-0.6 0.2-0.1 0.2-0.3 0.3-0.4 0.1-0.2 0.1-0.4 0.1-0.7-0.1-0.3-0.1-0.7-0.2-1-0.1-0.4-0.2-0.9-0.3-1.3 0-0.1 0-0.1 0-0.2 0-0.3 0-0.5-0.1-0.8-0.1-0.1-0.1-0.3-0.1-0.4-0.1-0.3-0.2-0.5-0.5-0.6-0.3-0.2-0.7-0.3-1-0.5-0.1-0.1-0.2 0-0.3 0.1-0.1 0.2-0.3 0.4-0.4 0.6-0.1 0.1-0.2 0.3-0.3 0.5-0.2 0.2-0.6 0.4-0.9 0.1-0.1-0.2-0.2-0.3 0-0.5 0.2-0.3 0.4-0.6 0.7-0.8 0.1-0.1 0.2-0.3 0.3-0.4 0.1-0.2 0.1-0.4 0.1-0.6-0.1-0.4-0.2-0.8-0.2-1.3 0-0.5 0-0.9 0.1-1.4 0.1-0.2 0.1-0.5 0.2-0.7 0-0.1 0.1-0.3 0.2-0.4 0.2-0.2 0.4-0.4 0.5-0.7 0.1-0.3 0.3-0.6 0.3-0.9 0-0.1 0.1-0.2 0.1-0.3 0-0.1 0.1-0.3 0.1-0.4-0.1-0.3 0-0.5 0.1-0.7 0.1-0.2 0.2-0.5 0.3-0.7 0.2-0.4 0.2-0.9 0.6-1.3 0.1-0.2 0.2-0.4 0.3-0.6 0.1-0.4 0.3-0.7 0.5-1 0.1-0.1 0.1-0.1 0.1-0.2 0.1-0.3 0.3-0.6 0.5-0.9 0.2-0.3 0.2-0.6 0.3-0.9 0-0.1 0-0.2 0.1-0.3 0.3-0.3 0.2-0.7 0.1-1.1-0.2-0.5-0.3-1-0.2-1.5 0-0.1 0-0.2 0.1-0.2 0.1-0.2 0.1-0.3 0.2-0.5v-0.1c0.2-0.2 0.4-0.5 0.7-0.6 0.4-0.2 0.8-0.3 1.3-0.4 0.4 0 0.8-0.2 1.1-0.6 0-0.1 0.1-0.1 0.2-0.2l0.1-0.1c0.1-0.2 0.2-0.3 0.3-0.4 0.2-0.2 0.4-0.5 0.6-0.7 0.2-0.2 0.4-0.5 0.7-0.8l0.1-0.1c0.2-0.2 0.4-0.4 0.6-0.5 0.2-0.2 0.4-0.4 0.6-0.6 0.2-0.2 0.3-0.4 0.5-0.6 0.2-0.1 0.4-0.3 0.6-0.5 0.2-0.2 0.4-0.4 0.5-0.5 0.2-0.2 0.5-0.4 0.7-0.5 0.2-0.1 0.4-0.2 0.5-0.5 0.1-0.3 0.2-0.5 0.3-0.8 0-0.2 0.1-0.4 0.2-0.6 0.1 0 0.2 0 0.4-0.1-0.1-0.1-0.2-0.1-0.2-0.2 0-0.1 0.1-0.2 0.1-0.2 0-0.1 0.1-0.2 0.1-0.3 0 0 0.1 0 0.1-0.1 0 0 0.1 0 0.1-0.1-0.2 0.1-0.3 0-0.4-0.1 0.1 0.1 0.2 0.1 0.4 0.2 0 0 0.1 0 0.1-0.1 0-0.1 0-0.2 0-0.2 0 0-0.1 0-0.2 0-0.1 0-0.2 0.1-0.3 0.1zM54 70.5c0-0.1-0.1-0.1-0.1-0.2-0.1-0.2 0-0.3 0.1-0.4 0.1-0.1 0.2-0.1 0.4-0.1 0.2 0.1 0.3 0.2 0.3 0.4 0 0.1 0 0.3 0 0.4 0.1 0.4 0.1 0.4 0.5 0.4 0.2 0 0.4 0 0.6 0 0.4-0.1 0.8-0.3 1.2-0.4 0.4-0.1 0.8-0.2 1.2-0.3 0.1 0 0.2 0 0.4 0 0.4 0.1 0.7 0 1-0.2 0.1-0.1 0.3-0.1 0.4-0.2 0.2-0.1 0.4-0.1 0.6-0.2 0.5-0.3 1-0.5 1.4-0.8 0.3-0.2 0.6-0.4 0.9-0.6 0.3-0.2 0.6-0.4 0.9-0.6 0.2-0.1 0.5-0.3 0.7-0.5 0.4-0.3 0.7-0.6 1.1-0.8 0.2-0.1 0.3-0.2 0.4-0.3 0.2-0.1 0.3-0.3 0.5-0.4 0.1-0.1 0.2-0.2 0.4-0.3 0.1-0.1 0.1-0.1 0.1-0.2 0.3-0.2 0.6-0.6 0.8-0.9 0.2-0.2 0.4-0.4 0.6-0.7 0.3-0.3 0.5-0.7 0.8-1.1 0.2-0.2 0.4-0.5 0.5-0.7 0.2-0.4 0.4-0.8 0.7-1.1v-0.1c0.2-0.4 0.4-0.8 0.6-1.2 0.3-0.5 0.5-1.1 0.8-1.6 0.1-0.2 0.2-0.4 0.2-0.6 0.2-0.4 0.3-0.8 0.4-1.2 0-0.1 0-0.1 0.1-0.2 0.3-0.6 0.5-1.2 0.6-1.9 0.1-0.4 0.2-0.8 0.3-1.2 0.2-0.6 0.2-1.1 0.3-1.7 0.1-0.4 0.1-0.9 0.1-1.3 0.1-0.6 0.1-1.3 0-1.9 0-0.5-0.1-1.1-0.1-1.6 0-0.5-0.1-0.9-0.2-1.4-0.1-0.5-0.2-0.9-0.3-1.4-0.2-0.4-0.3-0.8-0.4-1.3-0.1-0.4-0.3-0.7-0.3-1.1 0-0.3-0.1-0.6-0.4-0.7-0.3-0.1-0.5-0.2-0.8-0.4-0.6-0.4-0.9-0.9-0.8-1.5 0-0.3 0.1-0.7 0.2-1 0.1-0.3 0.2-0.6 0-0.8-0.1-0.3-0.3-0.5-0.4-0.7-0.2-0.3-0.3-0.5-0.5-0.7-0.2-0.4-0.4-0.8-0.7-1.1-0.4-0.5-0.7-1-1.2-1.4l-0.1-0.1c-0.3-0.4-0.6-0.8-1-1.1-0.2-0.2-0.4-0.4-0.6-0.5-0.1-0.1-0.2-0.2-0.4-0.3-0.3-0.2-0.6-0.3-0.8-0.5-0.3-0.3-0.7-0.5-1-0.7 0 0-0.1 0-0.1-0.1-0.4-0.2-0.7-0.3-1.1-0.5-0.4-0.2-0.8-0.3-1.2-0.3-0.1 0-0.1 0-0.2 0-0.1-0.1-0.3-0.1-0.4-0.1-0.1 0-0.1 0-0.2 0-0.2-0.1-0.5 0-0.7 0-0.4 0.1-0.8 0.1-1.2-0.1-0.5-0.2-0.9-0.4-1.3-0.6-0.3-0.2-0.5-0.4-0.8-0.6-0.6-0.5-1.2-1.1-1.9-1.6 0.1-0.5-0.1-0.6-0.5-0.6-0.2 0-0.4 0.1-0.6 0.2-0.1 0.1-0.1 0.1-0.2 0.2-0.3 0.2-0.5 0.5-0.8 0.7-0.5 0.3-0.7 0.2-1.1 0-0.1-0.1-0.2-0.2-0.3-0.3-0.2-0.2-0.4-0.5-0.5-0.7-0.2-0.4-0.6-0.4-1-0.4-0.2 0-0.5 0.1-0.7 0.1-0.4 0-0.8 0.2-1 0.5-0.2 0.3-0.4 0.6-0.7 0.9-0.1 0.1-0.3 0.2-0.4 0.4-0.2 0.2-0.4 0.2-0.6 0-0.1-0.1-0.2-0.1-0.3-0.2-0.1 0.1-0.2 0.2-0.2 0.3-0.1 0.2-0.2 0.4-0.3 0.7-0.1 0.3-0.3 0.6-0.5 0.8-0.1 0.1-0.1 0.1-0.2 0.2-0.1 0.2-0.4 0.3-0.6 0.3-0.2 0.2-0.4 0.5-0.5 0.7-0.1 0.2-0.2 0.4-0.3 0.7-0.1 0.1-0.1 0.3-0.2 0.4-0.1 0.2-0.1 0.3-0.1 0.5 0.1 0.3-0.1 0.4-0.4 0.5-0.2 0-0.2 0-0.3 0.2 0 0.3 0.1 0.5 0.2 0.8 0.1 0.1 0.2 0.3 0.2 0.4 0 0.2 0.1 0.3 0.3 0.4 0.1 0.1 0.2 0.2 0.3 0.2 0.1 0 0.1 0.1 0.2 0.1 0.1 0.1 0.2 0 0.2-0.1 0.1-0.3 0.2-0.6 0.2-0.9 0.1-0.4 0.1-0.7 0.2-1.1 0.1-0.2 0.2-0.3 0.3-0.4 0 0 0.1 0 0.2 0v0.1c-0.1 0.5-0.3 1.1-0.4 1.6-0.1 0.2-0.1 0.4-0.2 0.6 0 0.1-0.1 0.2-0.2 0.2-0.2 0.1-0.4 0.2-0.6 0.2-0.1 0-0.2 0-0.3 0-0.2-0.1-0.4-0.3-0.6-0.4-0.1-0.1-0.2-0.2-0.3-0.3-0.1-0.2-0.2-0.4-0.3-0.6-0.1-0.2-0.2-0.3-0.4-0.4-0.1-0.1-0.2-0.1-0.3-0.2-0.2-0.2-0.4-0.3-0.7-0.3-0.1 0-0.3 0-0.4 0-0.1 0-0.3 0.1-0.4 0.2-0.2 0.1-0.3 0.1-0.5 0-0.5-0.2-1-0.1-1.5 0.1-0.2 0.1-0.4 0.2-0.6 0.2-0.5 0-0.9 0-1.4 0-0.5 0-0.9-0.1-1.4-0.2-0.2 0-0.4 0-0.6 0-0.4 0.1-0.5 0.4-0.4 0.8 0.1 0.4 0.2 0.9 0.2 1.3 0 0.3 0 0.6 0 0.9 0 0.2 0 0.3 0 0.5 0 0.3-0.1 0.6-0.1 0.9-0.1 0.6-0.4 1.1-0.8 1.5-0.3 0.3-0.7 0.6-1.1 0.7-0.2 0.1-0.4 0.2-0.7 0.3-0.5 0.2-0.9 0.6-1.2 1.1-0.1 0.2-0.2 0.4-0.3 0.6-0.2 0.3-0.3 0.5-0.5 0.8-0.1 0.2-0.3 0.4-0.4 0.6-0.1 0.2-0.3 0.3-0.3 0.5-0.2 0.4-0.3 0.8-0.5 1.2-0.1 0.2-0.1 0.5-0.2 0.7-0.2 0.4-0.2 0.8-0.2 1.3 0 0.1 0 0.2 0 0.4 0 0.5-0.1 1.1-0.1 1.6 0 0.5 0 1 0.1 1.5 0 0.2 0 0.5 0 0.7 0 0.4 0.1 0.9 0.1 1.3 0 0.4 0 0.9 0.2 1.3v0.1c0.1 0.4 0.1 0.8 0.2 1.2 0 0.1 0 0.2 0.1 0.3 0.2 0.6 0.3 1.1 0.5 1.7 0.1 0.4 0.3 0.8 0.4 1.2 0.1 0.4 0.5 0.8 0.6 1.3v0c0.3 0.6 0.6 1.2 1 1.8 0.1 0.2 0.3 0.4 0.4 0.6 0.2 0.3 0.3 0.6 0.5 0.8 0.1 0.2 0.3 0.4 0.4 0.5 0.1 0.2 0.2 0.4 0.4 0.6 0.2 0.2 0.4 0.5 0.6 0.7 0.3 0.5 0.7 0.9 1.1 1.2 0.2 0.2 0.4 0.3 0.6 0.5 0.1 0.1 0.2 0.1 0.2 0.2 0.1 0.1 0.2 0.2 0.4 0.3 0.8 0.4 1.4 1 2.1 1.6 0.3 0.3 0.6 0.6 1 0.8 0.4 0.3 0.7 0.6 1.2 0.7 0 0 0.1 0 0.1 0.1 0.2 0.2 0.5 0.3 0.7 0.4 0.4 0.2 0.9 0.4 1.3 0.6 0.1 0.1 0.3 0.1 0.4 0.2 0.3 0.1 0.6 0.2 0.9 0.3 0.3 0.1 0.5 0.2 0.8 0.2h0.1c0.2 0.1 0.3 0.1 0.5 0 0.1 0 0.2 0 0.2 0.1 0 0.1 0.1 0.1 0.2 0.1 0.1 0 0.2 0 0.4 0 0.1-0.1 0.1-0.2 0.2-0.4 0.1 0.1 0.2 0.1 0.2 0.1 0.1 0.2 0.3 0.2 0.5 0.2h0.1c0.2 0 0.3 0 0.4-0.1 0-0.1 0.2-0.1 0.3-0.1 0.3 0.1 0.6 0.1 0.9 0.2 0.2 0.1 0.5 0.1 0.6-0.1 0.1-0.1 0.2-0.2 0.4-0.1 0.2 0.1 0.3 0.1 0.5 0 0.1 0 0.2 0 0.2 0 0.3 0.1 0.5 0.1 0.8 0.2 0.4 0.1 0.4 0.1 0.7-0.2 0.1-0.1 0.3-0.1 0.4 0 0.1 0.2 0.1 0.3 0.1 0.5 0.1 0 0.1 0 0.2-0.1 0-0.2 0.1-0.2 0.3-0.3 0.1 0.1 0.1 0.1 0.2 0.1 0.2 0.2 0.3 0.2 0.4-0.1 0-0.1 0-0.2 0.1-0.2 0.1 0 0.2 0.1 0.2 0.1 0.1 0.2 0.3 0.3 0.4 0.5 0.2 0.2 0.5 0.2 0.6 0 0.1-0.1 0.2-0.1 0.3-0.1 0-0.1 0-0.2 0-0.3 0.3 0.2 0.2 0.2 0.1 0.2zM37.4 23.8c0.3 0.1 0.5 0.1 0.6-0.1-0.2 0.1-0.4-0.1-0.6 0.1z" fill="#d5b263" fill-rule="nonzero" stroke="none" stroke-width="1" stroke-linecap="butt" stroke-linejoin="miter" stroke-miterlimit="10" stroke-dasharray="" stroke-dashoffset="0" font-family="none" font-weight="none" font-size="none" text-anchor="none" style="mix-blend-mode: normal" data-fill-palette-color="tertiary"></path></g><g transform="matrix(1,0,0,1,69.2275301342087,90)"><svg viewBox="0 0 181.5449397315826 180" height="180" width="181.5449397315826"><g><svg viewBox="0 0 192 190.36608814929005" height="180" width="181.5449397315826"><g transform="matrix(1,0,0,1,0,112.45518708814326)"><svg viewBox="0 0 192 77.91090106114679" height="77.91090106114679" width="192"><g id="textblocktransform"><svg viewBox="0 0 192 77.91090106114679" height="77.91090106114679" width="192" id="textblock"><g><svg viewBox="0 0 192 55.68238213399504" height="55.68238213399504" width="192"><g transform="matrix(1,0,0,1,0,0)"><svg width="192" viewBox="3.25 -36.95 161.19 46.75" height="55.68238213399504" data-palette-color="#d5b263"><g class="wordmark-text-0" data-fill-palette-color="primary" id="text-0"><path d="M14.75 0L14.75 0 3.25 0 3.25-33.7 14.85-33.7Q22.45-33.7 27.3-29.03 32.15-24.35 32.15-17.4L32.15-17.4Q32.15-9.3 27.38-4.65 22.6 0 14.75 0ZM14.6-27.35L14.6-27.35 11.15-27.35 11.15-6.3 14.65-6.3Q19.3-6.3 21.83-9.2 24.35-12.1 24.35-17.4L24.35-17.4Q24.35-21.9 21.8-24.63 19.25-27.35 14.6-27.35ZM57.05-7.55L57.05-1.45Q54.45 0.25 49.1 0.25L49.1 0.25Q42.85 0.25 39.37-3.38 35.9-7 35.9-12.7L35.9-12.7Q35.9-18.75 39.27-22.18 42.65-25.6 47.6-25.6L47.6-25.6Q52.7-25.6 55.65-22.63 58.6-19.65 58.6-13.75L58.6-13.75Q58.6-12.6 58.2-9.8L58.2-9.8 43.3-9.8Q44.05-7.7 45.9-6.55 47.75-5.4 50.35-5.4L50.35-5.4Q54.2-5.4 57.05-7.55L57.05-7.55ZM47.9-20.05L47.9-20.05Q46.15-20.05 44.8-18.78 43.45-17.5 43-15L43-15 51.8-15 51.8-15.6Q51.45-20.05 47.9-20.05ZM71.34-35.35L71.34 0 64.05 0 64.05-35.35 71.34-35.35ZM85.14-25.35L85.14 0 77.84 0 77.84-25.35 85.14-25.35ZM84.49-35.7Q85.74-34.45 85.74-32.7 85.74-30.95 84.49-29.7 83.24-28.45 81.49-28.45 79.74-28.45 78.49-29.7 77.24-30.95 77.24-32.7 77.24-34.45 78.49-35.7 79.74-36.95 81.49-36.95 83.24-36.95 84.49-35.7ZM114.89-25.35L114.89-2.45Q114.89 3.65 111.24 6.73 107.59 9.8 102.09 9.8L102.09 9.8Q96.74 9.8 92.74 7.9L92.74 7.9 92.74 0.45Q96.24 3.25 101.34 3.25L101.34 3.25Q104.64 3.25 106.14 1.85 107.64 0.45 107.64-2.55L107.64-2.55 107.64-4.25Q105.44-0.85 100.64-0.85L100.64-0.85Q96.44-0.85 93.42-3.95 90.39-7.05 90.39-13.15L90.39-13.15Q90.39-18.55 93.31-22.08 96.24-25.6 100.99-25.6L100.99-25.6Q105.49-25.6 107.64-22L107.64-22 107.64-25.35 114.89-25.35ZM97.99-13.1L97.99-13.1Q97.99-9.95 99.19-8.3 100.39-6.65 102.64-6.65L102.64-6.65Q104.99-6.65 106.31-8.43 107.64-10.2 107.64-12.7L107.64-12.7Q107.64-19.5 102.69-19.5L102.69-19.5Q100.49-19.5 99.24-17.8 97.99-16.1 97.99-13.1ZM143.89-16.15L143.89 0 136.59 0 136.59-15Q136.59-17.2 135.49-18.45 134.39-19.7 132.64-19.7L132.64-19.7Q131.89-19.7 131.21-19.48 130.54-19.25 129.74-18.68 128.94-18.1 128.44-16.73 127.94-15.35 127.94-13.4L127.94-13.4 127.94 0 120.64 0 120.64-35.35 127.94-35.35 127.94-21.05Q129.89-25.6 135.54-25.6L135.54-25.6Q139.24-25.6 141.56-23.25 143.89-20.9 143.89-16.15L143.89-16.15ZM164.44-6.6L164.44-0.55Q162.58 0.25 159.44 0.25L159.44 0.25Q150.78 0.25 150.78-8.4L150.78-8.4 150.78-20 147.13-20 147.13-25.35 150.78-25.35 150.78-31.35 158.08-31.35 158.08-25.35 163.98-25.35 163.98-20 158.08-20 158.08-8.35Q158.08-7 158.86-6.3 159.63-5.6 160.88-5.6L160.88-5.6Q162.88-5.6 164.44-6.6L164.44-6.6Z" fill="#d5b263" data-fill-palette-color="primary"></path></g></svg></g></svg></g><g transform="matrix(1,0,0,1,46.080000000000005,68.82765617866005)"><svg viewBox="0 0 99.83999999999999 9.083244882486733" height="9.083244882486733" width="99.83999999999999"><g transform="matrix(1,0,0,1,0,0)"><svg width="99.83999999999999" viewBox="2.55 -42.3 593.49 54" height="9.083244882486733" data-palette-color="#d5b263"><path d="M21.45 0.85Q15.2 0.85 10.98-1.6 6.75-4.05 4.65-8.5 2.55-12.95 2.55-18.9L2.55-18.9Q2.55-24.5 4.65-28.95 6.75-33.4 11-36 15.25-38.6 21.45-38.6L21.45-38.6Q24.1-38.6 26.18-38.18 28.25-37.75 30.65-36.75L30.65-36.75 30.65-31.45Q26.55-33.5 21.6-33.5L21.6-33.5Q17.65-33.5 14.68-31.63 11.7-29.75 10.13-26.45 8.55-23.15 8.55-18.9L8.55-18.9Q8.6-14.55 10.1-11.25 11.6-7.95 14.5-6.1 17.4-4.25 21.45-4.25L21.45-4.25Q24.05-4.25 26.55-5 29.05-5.75 31.85-7.15L31.85-7.15 33.65-2.2Q30.75-0.7 27.55 0.08 24.35 0.85 21.45 0.85L21.45 0.85ZM52 0.85Q47.45 0.85 44.3-1.1 41.15-3.05 39.55-6.38 37.95-9.7 37.95-13.9L37.95-13.9Q37.95-18.05 39.55-21.4 41.15-24.75 44.3-26.68 47.45-28.6 52-28.6L52-28.6Q56.5-28.6 59.65-26.68 62.8-24.75 64.37-21.4 65.95-18.05 65.95-13.9L65.95-13.9Q65.95-9.7 64.37-6.38 62.8-3.05 59.65-1.1 56.5 0.85 52 0.85L52 0.85ZM52-4.2Q55.85-4.2 57.92-6.85 60-9.5 60-13.9L60-13.9Q60-18.25 57.92-20.9 55.85-23.55 52-23.55L52-23.55Q48.1-23.55 46-20.9 43.9-18.25 43.9-13.9L43.9-13.9Q43.9-9.5 46-6.85 48.1-4.2 52-4.2L52-4.2ZM86.75-28.4Q92-28.4 94.55-25.68 97.09-22.95 97.09-16.75L97.09-16.75 97.09 0 91.4 0 91.4-16.75Q91.4-20.2 90.15-21.7 88.9-23.2 85.8-23.2L85.8-23.2Q82.2-23.2 78.45-20.05L78.45-20.05 78.45 0 72.75 0 72.75-27.8 78.45-27.8 78.45-25Q82.4-28.4 86.75-28.4L86.75-28.4ZM119.34-28.4Q124.59-28.4 127.14-25.68 129.69-22.95 129.69-16.75L129.69-16.75 129.69 0 123.99 0 123.99-16.75Q123.99-20.2 122.74-21.7 121.49-23.2 118.39-23.2L118.39-23.2Q114.79-23.2 111.04-20.05L111.04-20.05 111.04 0 105.34 0 105.34-27.8 111.04-27.8 111.04-25Q114.99-28.4 119.34-28.4L119.34-28.4ZM142.19-12.95Q142.39-8.9 144.49-6.5 146.59-4.1 151.04-4.1L151.04-4.1Q152.99-4.1 154.89-4.63 156.79-5.15 159.04-6.2L159.04-6.2 160.64-1.6Q158.29-0.3 155.84 0.28 153.39 0.85 150.44 0.85L150.44 0.85Q145.89 0.85 142.72-1 139.54-2.85 137.89-6.2 136.24-9.55 136.24-13.95L136.24-13.95Q136.24-18.6 137.94-21.9 139.64-25.2 142.59-26.9 145.54-28.6 149.14-28.6L149.14-28.6Q154.79-28.6 158.01-25.18 161.24-21.75 161.24-15.2L161.24-15.2 161.24-12.95 142.19-12.95ZM149.14-23.65Q143.64-23.65 142.44-17.55L142.44-17.55 155.24-17.55Q154.99-20.7 153.49-22.18 151.99-23.65 149.14-23.65L149.14-23.65ZM179.44 0.85Q172.84 0.8 169.31-3.15 165.79-7.1 165.79-13.95L165.79-13.95Q165.79-20.8 169.31-24.68 172.84-28.55 179.44-28.6L179.44-28.6Q181.74-28.6 183.41-28.3 185.09-28 186.99-27.25L186.99-27.25 186.99-21.85Q185.14-22.7 183.51-23.05 181.89-23.4 179.94-23.4L179.94-23.4Q171.74-23.35 171.74-14L171.74-14Q171.74-9.55 173.66-6.98 175.59-4.4 179.84-4.35L179.84-4.35Q183.39-4.35 187.39-6.5L187.39-6.5 189.09-1.65Q184.64 0.85 179.44 0.85L179.44 0.85ZM208.09-22.1L201.69-22.1 201.69-7.9Q201.69-6 202.29-5.28 202.89-4.55 204.54-4.55L204.54-4.55Q206.09-4.55 207.69-4.95L207.69-4.95 207.69 0.1Q205.34 0.65 203.34 0.65L203.34 0.65Q199.34 0.65 197.66-1 195.99-2.65 195.99-6.3L195.99-6.3 195.99-22.1 192.34-22.1 192.34-27.3 195.99-27.3 195.99-36.8 201.69-36.8 201.69-27.3 208.09-27.3 208.09-22.1ZM212.38 7.55L215.38-8.3 221.38-8.3 217.58 7.55 212.38 7.55ZM251.48 0.85Q244.08 0.85 238.28-1.9L238.28-1.9 238.28-7.35Q244.18-4.25 251.48-4.25L251.48-4.25Q255.33-4.25 257.13-5.8 258.93-7.35 258.93-9.9L258.93-9.9Q258.93-12.35 257.28-13.6 255.63-14.85 252.28-15.75L252.28-15.75 248.88-16.7Q245.98-17.55 243.88-18.65 241.78-19.75 240.35-21.88 238.93-24 238.93-27.4L238.93-27.4Q238.93-32.9 242.18-35.75 245.43-38.6 251.33-38.6L251.33-38.6Q254.88-38.6 257.55-37.98 260.23-37.35 262.98-36L262.98-36 262.98-30.7Q257.68-33.5 251.33-33.5L251.33-33.5Q244.83-33.5 244.83-27.8L244.83-27.8Q244.88-25.3 246.35-24.13 247.83-22.95 251.18-22.05L251.18-22.05 254.63-21.1Q257.73-20.25 259.9-19.1 262.08-17.95 263.45-15.78 264.83-13.6 264.83-10.1L264.83-10.1Q264.78-5 261.23-2.08 257.68 0.85 251.48 0.85L251.48 0.85ZM285.98-28.4Q291.23-28.4 293.78-25.68 296.33-22.95 296.33-16.75L296.33-16.75 296.33 0 290.63 0 290.63-16.75Q290.63-20.2 289.38-21.7 288.13-23.2 285.03-23.2L285.03-23.2Q281.33-23.2 277.68-20.05L277.68-20.05 277.68 0 271.98 0 271.98-42.3 277.68-42.3 277.68-25.05Q281.63-28.4 285.98-28.4L285.98-28.4ZM313.72-27.8Q318.37-27.8 320.82-26.33 323.27-24.85 324.07-22.38 324.87-19.9 324.87-16.15L324.87-16.15 324.87 0 319.17 0 319.17-2.65Q317.32-0.9 315.47-0.13 313.62 0.65 311.47 0.65L311.47 0.65Q307.27 0.65 304.62-1.88 301.97-4.4 301.97-8.8L301.97-8.8Q301.97-13.3 304.77-15.78 307.57-18.25 312.32-18.25L312.32-18.25Q316.02-18.25 319.12-16.65L319.12-16.65Q319.07-18.8 318.65-20.1 318.22-21.4 316.9-22.1 315.57-22.8 312.97-22.8L312.97-22.8 308.77-22.8 308.77-27.8 313.72-27.8ZM312.37-4.05Q315.67-4.05 319.17-7.05L319.17-7.05 319.17-12.4Q316.37-13.8 313.37-13.8L313.37-13.8Q310.92-13.8 309.35-12.65 307.77-11.5 307.77-8.85L307.77-8.85Q307.77-6.3 309.12-5.18 310.47-4.05 312.37-4.05L312.37-4.05ZM346.27-28.4L347.42-28.4 347.42-23.2 346.27-23.2Q342.17-23.2 338.07-19.95L338.07-19.95 338.07 0 332.37 0 332.37-27.8 338.07-27.8 338.07-24.85Q342.02-28.4 346.27-28.4L346.27-28.4ZM357.42-12.95Q357.62-8.9 359.72-6.5 361.82-4.1 366.27-4.1L366.27-4.1Q368.22-4.1 370.12-4.63 372.02-5.15 374.27-6.2L374.27-6.2 375.87-1.6Q373.52-0.3 371.07 0.28 368.62 0.85 365.67 0.85L365.67 0.85Q361.12 0.85 357.94-1 354.77-2.85 353.12-6.2 351.47-9.55 351.47-13.95L351.47-13.95Q351.47-18.6 353.17-21.9 354.87-25.2 357.82-26.9 360.77-28.6 364.37-28.6L364.37-28.6Q370.02-28.6 373.24-25.18 376.47-21.75 376.47-15.2L376.47-15.2 376.47-12.95 357.42-12.95ZM364.37-23.65Q358.87-23.65 357.67-17.55L357.67-17.55 370.47-17.55Q370.22-20.7 368.72-22.18 367.22-23.65 364.37-23.65L364.37-23.65ZM380.82 7.55L383.82-8.3 389.82-8.3 386.02 7.55 380.82 7.55ZM414.56-4.95L432.41-4.95 432.41 0 408.66 0 408.66-37.9 432.16-37.9 432.16-32.95 414.56-32.95 414.56-21.55 429.66-21.55 429.66-16.6 414.56-16.6 414.56-4.95ZM463.51 0L456.76 0 450.06-10.05 443.76 0 436.96 0 446.61-14.5 437.46-27.8 444.26-27.8 450.26-18.6 456.41-27.8 463.06-27.8 453.66-14.15 463.51 0ZM482.91-28.6Q488.56-28.6 491.96-24.83 495.36-21.05 495.36-13.9L495.36-13.9Q495.36-6.7 491.96-2.93 488.56 0.85 482.91 0.85L482.91 0.85Q478.86 0.85 475.01-2.35L475.01-2.35 475.01 11.7 469.31 11.7 469.31-27.8 475.01-27.8 475.01-25.4Q478.86-28.6 482.91-28.6L482.91-28.6ZM481.96-4.35Q485.66-4.35 487.56-6.78 489.46-9.2 489.46-13.9L489.46-13.9Q489.46-18.55 487.56-20.98 485.66-23.4 481.96-23.4L481.96-23.4Q478.51-23.4 475.01-20.6L475.01-20.6 475.01-7.15Q478.51-4.35 481.96-4.35L481.96-4.35ZM509.65 0.65Q505.7 0.65 503.93-0.98 502.15-2.6 502.15-6.15L502.15-6.15 502.15-42.3 507.85-42.3 507.85-7.9Q507.85-6 508.45-5.28 509.05-4.55 510.75-4.55L510.75-4.55Q512.25-4.55 513.35-4.85L513.35-4.85 513.35 0.2Q511.4 0.65 509.65 0.65L509.65 0.65ZM531.2 0.85Q526.65 0.85 523.5-1.1 520.35-3.05 518.75-6.38 517.15-9.7 517.15-13.9L517.15-13.9Q517.15-18.05 518.75-21.4 520.35-24.75 523.5-26.68 526.65-28.6 531.2-28.6L531.2-28.6Q535.7-28.6 538.85-26.68 542-24.75 543.58-21.4 545.15-18.05 545.15-13.9L545.15-13.9Q545.15-9.7 543.58-6.38 542-3.05 538.85-1.1 535.7 0.85 531.2 0.85L531.2 0.85ZM531.2-4.2Q535.05-4.2 537.13-6.85 539.2-9.5 539.2-13.9L539.2-13.9Q539.2-18.25 537.13-20.9 535.05-23.55 531.2-23.55L531.2-23.55Q527.3-23.55 525.2-20.9 523.1-18.25 523.1-13.9L523.1-13.9Q523.1-9.5 525.2-6.85 527.3-4.2 531.2-4.2L531.2-4.2ZM565.85-28.4L567-28.4 567-23.2 565.85-23.2Q561.75-23.2 557.65-19.95L557.65-19.95 557.65 0 551.95 0 551.95-27.8 557.65-27.8 557.65-24.85Q561.6-28.4 565.85-28.4L565.85-28.4ZM576.99-12.95Q577.19-8.9 579.29-6.5 581.39-4.1 585.84-4.1L585.84-4.1Q587.79-4.1 589.69-4.63 591.59-5.15 593.84-6.2L593.84-6.2 595.44-1.6Q593.09-0.3 590.64 0.28 588.19 0.85 585.24 0.85L585.24 0.85Q580.69 0.85 577.52-1 574.34-2.85 572.69-6.2 571.04-9.55 571.04-13.95L571.04-13.95Q571.04-18.6 572.74-21.9 574.44-25.2 577.39-26.9 580.34-28.6 583.94-28.6L583.94-28.6Q589.59-28.6 592.82-25.18 596.04-21.75 596.04-15.2L596.04-15.2 596.04-12.95 576.99-12.95ZM583.94-23.65Q578.44-23.65 577.24-17.55L577.24-17.55 590.04-17.55Q589.79-20.7 588.29-22.18 586.79-23.65 583.94-23.65L583.94-23.65Z" opacity="1" transform="matrix(1,0,0,1,0,0)" fill="#d5b263" class="slogan-text-1" data-fill-palette-color="secondary" id="text-1"></path></svg></g></svg></g></svg></g></svg></g><g transform="matrix(1,0,0,1,39.638400000000004,0)"><svg viewBox="0 0 112.72319999999999 99.30991304347825" height="99.30991304347825" width="112.72319999999999"><g><svg xmlns="http://www.w3.org/2000/svg" xmlns:xlink="http://www.w3.org/1999/xlink" version="1.1" x="0" y="0" viewBox="6.3 11.5 87.4 77" style="enable-background:new 0 0 100 100;" xml:space="preserve" height="99.30991304347825" width="112.72319999999999" class="icon-icon-0" data-fill-palette-color="accent" id="icon-0"><path d="M72.3 12.3L72.3 12.3 72.3 12.3l-0.4-0.8H28.2L6.3 50l21.8 38.5h43.7L93.7 50 72.3 12.3zM33.3 25.3L9.9 47.7l18.6-32.8L33.3 25.3zM70.7 14.8l6.4 35.7L36.9 25.8 70.7 14.8zM35.5 27.3l41 25.2-41 23.3V27.3zM77 54.5l-7.2 30.8-32.6-8.1L77 54.5zM33.5 75L9.9 50.5l23.6-22.7V75zM33.2 77.6l-4.6 7.7L11.5 55.1 33.2 77.6zM35 78.6l31.4 7.9H30.2L35 78.6zM79.3 53.3l11.6-2.5L72.1 84 79.3 53.3zM90.7 48.9l-11.4 2.5-5.9-33.1L90.7 48.9zM35 24.3l-5-10.8h38.2L35 24.3z" fill="#c9ad8b" data-fill-palette-color="accent"></path></svg></g></svg></g><g></g></svg></g></svg></g></svg></g><defs></defs></svg><rect width="320" height="360" fill="none" stroke="none" visibility="hidden"></rect></g></svg></g></svg>