<svg xmlns="http://www.w3.org/2000/svg" xmlns:xlink="http://www.w3.org/1999/xlink" viewBox="0,0,256,256" width="48px" height="48px"><g fill="none" fill-rule="nonzero" stroke="none" stroke-width="1" stroke-linecap="butt" stroke-linejoin="miter" stroke-miterlimit="10" stroke-dasharray="" stroke-dashoffset="0" font-family="none" font-weight="none" font-size="none" text-anchor="none" style="mix-blend-mode: normal"><g transform="scale(5.33333,5.33333)"><path d="M29.171,32.001l2.829,-2.829l12.001,12l-2.828,2.828z" fill-opacity="0.25882" fill="#616161"></path><path d="M36,20c0,8.837 -7.163,16 -16,16c-8.837,0 -16,-7.163 -16,-16c0,-8.837 7.163,-16 16,-16c8.837,0 16,7.163 16,16" fill-opacity="0.25882" fill="#616161"></path><path d="M32.476,35.307l2.828,-2.828l8.693,8.693l-2.827,2.828z" fill-opacity="0.14118" fill="#37474f"></path><path d="M7,20c0,-7.18 5.82,-13 13,-13c7.18,0 13,5.82 13,13c0,7.18 -5.82,13 -13,13c-7.18,0 -13,-5.82 -13,-13" fill="#64b5f6"></path></g></g></svg>